# xmcd CD database file
#
# Track frame offsets:
#	150
#	33508
#	84104
#	134671
#	166564
#	216999
#	261273
#
# Disc length: 4148 seconds
#
# Revision: 2
# Processed by: cddbd v1.5.2PL0 Copyright (c) Steve Scherf et al.
# Submitted via: CDex 1.51
#
DISCID=59103207
DTITLE=Satkirin Kaur Khalsa - Lightness of Being
DYEAR=2005
DGENRE=New Age
TTITLE0=Dedication (Aad Guray Nameh)
TTITLE1=Support (Guru Ram Das)
TTITLE2=No Resistance (Aad Sach, Joogaad Sach, Hai-bhay Sach)
TTITLE3=Protection (Chattara Chakara Varatee)
TTITLE4=Magis Mantra (Ek ong kar, Sat Gur Prasaad)
TTITLE5=Purification (RaamDas Sarovar Naatay)
TTITLE6=Ecstacy (Wahe Guru Wahe Guru ji Satnam ji)
EXTD=YEAR: 2005
EXTT0=
EXTT1=
EXTT2=
EXTT3=
EXTT4=
EXTT5=
EXTT6=
PLAYORDER=
